<svg width="28" height="28" viewBox="0 0 28 28" fill="none" xmlns="http://www.w3.org/2000/svg">
<path d="M17.92 6.16H20.72C21.0291 6.16 21.28 5.90912 21.28 5.6V1.82728C21.28 1.53384 21.0543 1.28968 20.762 1.26896C19.871 1.20568 18.1306 1.12 16.879 1.12C13.44 1.12 11.2 3.1808 11.2 6.92608V10.64H7.28C6.97088 10.64 6.72 10.8909 6.72 11.2V15.12C6.72 15.4291 6.97088 15.68 7.28 15.68H11.2V26.32C11.2 26.6291 11.4509 26.88 11.76 26.88H15.68C15.9891 26.88 16.24 26.6291 16.24 26.32V15.68H20.2843C20.5699 15.68 20.8096 15.4655 20.841 15.1816L21.2766 11.2616C21.3136 10.9301 21.0538 10.64 20.72 10.64H16.24V7.84C16.24 6.91208 16.9921 6.16 17.92 6.16Z" fill="#039BE5"/>
</svg>
