<svg width="28" height="28" viewBox="0 0 28 28" fill="none" xmlns="http://www.w3.org/2000/svg">
<path d="M23.8607 9.13266C23.7459 9.20453 21.0131 10.7212 21.0131 14.084C21.1419 17.9191 24.4617 19.264 24.5187 19.264C24.4617 19.3359 24.0175 21.0961 22.7015 22.9413C21.6571 24.5308 20.4979 26.1333 18.7376 26.1333C17.0632 26.1333 16.4621 25.074 14.5301 25.074C12.4553 25.074 11.8683 26.1333 10.2797 26.1333C8.51946 26.1333 7.2744 24.4449 6.17306 22.8704C4.74226 20.8096 3.52613 17.5756 3.4832 14.4704C3.45426 12.8249 3.76973 11.2075 4.57053 9.83359C5.7008 7.91559 7.71866 6.61359 9.92226 6.57066C11.6107 6.51373 13.1133 7.72986 14.1437 7.72986C15.1312 7.72986 16.9773 6.57066 19.0661 6.57066C19.9677 6.57159 22.372 6.84319 23.8607 9.13266ZM14.0009 6.24213C13.7004 4.73946 14.5301 3.23679 15.3029 2.27826C16.2904 1.11906 17.85 0.33226 19.1949 0.33226C19.2808 1.83493 18.7367 3.30866 17.7641 4.38199C16.8915 5.54119 15.3888 6.41386 14.0009 6.24213Z" fill="black"/>
</svg>
